<svg xmlns="http://www.w3.org/2000/svg" xmlns:svg="http://www.w3.org/2000/svg" id="svg2" width="85.603" height="121.62" version="1.1"><metadata id="metadata16"/><g id="layer1" fill="#fff"><g id="g2061" fill="#fff" fill-rule="evenodd" stroke-linecap="round" stroke-linejoin="round" stroke-width=".625"><path id="rect2723" fill="#fff" d="m42.801 0c-20.072 0-36.231 16.159-36.231 36.231v40.256h10.064v-40.256c0-14.496 11.67-26.167 26.167-26.167 14.496 0 26.167 11.67 26.167 26.167v40.256h10.064v-40.256c0-20.072-16.159-36.231-36.231-36.231z"/><rect id="rect1941" width="85.603" height="66.259" x="0" y="55.359" fill="#fff" rx=".5" ry=".5"/></g></g><g id="g8" fill="#fff" stroke="#fff" stroke-width="5"><circle id="svg_1" cx="43.276" cy="80.963" r="11.662" fill="#fff" stroke="#fff" d="m 54.938001,80.962997 c 0,6.440745 -5.221255,11.662 -11.662,11.662 -6.440745,0 -11.662,-5.221255 -11.662,-11.662 0,-6.440744 5.221255,-11.661999 11.662,-11.661999 6.440745,0 11.662,5.221255 11.662,11.661999 z"/><path id="svg_10" fill="#fff" stroke="#fff" stroke-dasharray="none" stroke-linecap="null" stroke-linejoin="null" d="m 43.76,79.407 -4.786,21.618 9.316679,0.0843 z"/></g></svg>